# xmcd CD database file
#
# Track frame offsets:
#        183
#        15935
#        35195
#        51198
#        64188
#        84758
#        113530
#        135323
#        157313
#        186675
#        209520
#        231050
#        250953
#
# Disc length: 3566 seconds
#
# Revision: 0
# Processed by: cddbd v1.5.2PL0 Copyright (c) Steve Scherf et al.
# Submitted via: CUERipper 2.1.5
#
DISCID=b10dec0d
DTITLE=Eagles - The Best of Eagles
DYEAR=1985
DGENRE=
TTITLE0=Take It Easy
TTITLE1=Peaceful, Easy Feeling
TTITLE2=Desperado
TTITLE3=Tequila Sunrise
TTITLE4=Best of My Love
TTITLE5=Lyin' Eyes
TTITLE6=Take It to the Limit
TTITLE7=One of These Nights
TTITLE8=Hotel California
TTITLE9=New Kid in Town
TTITLE10=Life in the Fast Lane
TTITLE11=Heartache Tonight
TTITLE12=The Long Run
EXTD=
EXTT0=
EXTT1=
EXTT2=
EXTT3=
EXTT4=
EXTT5=
EXTT6=
EXTT7=
EXTT8=
EXTT9=
EXTT10=
EXTT11=
EXTT12=
PLAYORDER=
